# xmcd CD database file
#
# Track frame offsets:
#	150
#	14705
#	32086
#	52458
#	70914
#	87108
#	101070
#	119349
#	137720
#	160974
#	175316
#	190302
#	208933
#	227490
#	243734
#	256955
#	273928
#	288518
#	307257
#	325439
#	339383
#
# Disc length: 4754 seconds
#
# Revision: 0
# Processed by: cddbd v1.5.2PL0 Copyright (c) Steve Scherf et al.
# Submitted via: CDex 1.51
#
DISCID=4c129015
DTITLE=J.J. Johnson and Kai Winding - The Great Kai and JJ
DYEAR=1960
DGENRE=Jazz
TTITLE0=This could be the start of something big
TTITLE1=Georgia on my mind
TTITLE2=Blue Monk
TTITLE3=Judy
TTITLE4=Alone together
TTITLE5=Side by side
TTITLE6=I concentrate on you
TTITLE7=Theme from picknick
TTITLE8=Trixie
TTITLE9=Going, going, gong!
TTITLE10=Just for a thrill
TTITLE11=Speak low
TTITLE12=Lil' darling
TTITLE13=Doodlin'
TTITLE14=Love walked in
TTITLE15=Mangos
TTITLE16=Impulse
TTITLE17=Black coffee
TTITLE18=Bye, bye blackbird
TTITLE19=Michie (slow)
TTITLE20=Michie (fast)
EXTD=YEAR: 1960
EXTT0=
EXTT1=
EXTT2=
EXTT3=
EXTT4=
EXTT5=
EXTT6=
EXTT7=
EXTT8=
EXTT9=
EXTT10=
EXTT11=
EXTT12=
EXTT13=
EXTT14=
EXTT15=
EXTT16=
EXTT17=
EXTT18=
EXTT19=
EXTT20=
PLAYORDER=
